<svg width="500" height="500" viewBox="0 0 500 500" fill="none" xmlns="http://www.w3.org/2000/svg">
<rect x="26" y="117" width="448" height="266" rx="13" stroke="white" stroke-width="18"/>
<path d="M214.109 317V191H233.549V317H214.109ZM131.849 317V191H151.289V317H131.849ZM140.309 263.54V244.82H222.749V263.54H140.309ZM268.783 317V191H318.103C327.103 191 335.203 192.5 342.403 195.5C349.723 198.5 355.963 202.82 361.123 208.46C366.283 214.1 370.243 220.76 373.003 228.44C375.763 236.12 377.143 244.64 377.143 254C377.143 263.36 375.763 271.94 373.003 279.74C370.243 287.42 366.283 294.08 361.123 299.72C356.083 305.24 349.903 309.5 342.583 312.5C335.263 315.5 327.103 317 318.103 317H268.783ZM288.223 300.26L287.683 298.28H317.203C323.563 298.28 329.203 297.26 334.123 295.22C339.163 293.18 343.363 290.3 346.723 286.58C350.203 282.74 352.843 278.06 354.643 272.54C356.443 267.02 357.343 260.84 357.343 254C357.343 247.16 356.443 241.04 354.643 235.64C352.843 230.12 350.203 225.44 346.723 221.6C343.243 217.76 339.043 214.82 334.123 212.78C329.203 210.74 323.563 209.72 317.203 209.72H287.143L288.223 208.1V300.26Z" fill="white"/>
<circle cx="434" cy="156" r="12" fill="#24FF00"/>
</svg>
